<svg width="71" height="72" viewBox="0 0 71 72" fill="none" xmlns="http://www.w3.org/2000/svg">
<path d="M71 72H0V0H71V72ZM49 10.5C42.6 25.3 20.5 51 7.5 63.5L8.5 64.5C30.5 40.5 52.3333 25 60 21.5V10.5H49ZM60 47C44.5 45.5 36 48.3333 33 49.5C51.8 50.3 58.8333 54.5 60 56.5V47ZM60 30.5C42.4 35.7 31 45 27 49.5C42 39.5 54.8333 40.1933 60 40.5V30.5ZM31 10.5C31 27.3 24.6667 40.8333 21.5 45.5C33.1 32.7 40 16.8333 42 10.5H31ZM14.5 10.5C18.9 16.5 21 23.5 23 37C23 37 27.5 18.5 24 10.5H14.5Z" fill="#DA0713"/>
</svg>
