<svg width="50" height="46" viewBox="0 0 50 46" fill="none" xmlns="http://www.w3.org/2000/svg">
<path d="M17.5781 38.4883C17.0607 38.4883 16.6406 38.8733 16.6406 39.3477C16.6406 39.8223 17.0607 40.207 17.5781 40.207C18.0956 40.207 18.5156 39.8223 18.5156 39.3477C18.5156 38.8733 18.0956 38.4883 17.5781 38.4883Z" fill="#DA0713" stroke="#DA0713" stroke-width="0.658514"/>
<path d="M47.8931 14.3945C47.8887 14.3914 47.8839 14.3888 47.8795 14.3857L40.0781 9.48394V7.01458C40.0781 6.54024 39.6584 6.1552 39.1406 6.1552H34.6359L27.7874 1.78985C26.1669 0.737447 23.9894 0.737447 22.3755 1.78548L15.5193 6.1552H11.0156C10.4978 6.1552 10.0781 6.54024 10.0781 7.01458V9.48394L2.27673 14.3857C2.27234 14.3884 2.26758 14.3914 2.26318 14.3945C1.50879 14.8866 1.07812 15.6842 1.07812 16.4969V42.4208C1.07812 43.8156 2.30859 44.999 3.89062 44.999H46.2656C47.8488 44.999 49.0781 43.8146 49.0781 42.4208V16.4969C49.0781 15.6503 48.6171 14.8668 47.8931 14.3945ZM47.2031 42.3194L31.5656 30.2963L47.2031 17.4949V42.3194ZM2.95312 17.4949L18.5907 30.2963L2.95312 42.3194V17.4949ZM20.0039 31.4531L21.9115 33.0147C22.7783 33.7425 23.9026 34.143 25.0781 34.143C26.2537 34.143 27.3779 33.7425 28.2448 33.0147L30.1523 31.4531L45.5354 43.2802H4.62085L20.0039 31.4531ZM46.6128 15.6738L40.0781 21.0234V11.5676L46.6128 15.6738ZM23.4525 3.19237C24.4248 2.56093 25.7314 2.5606 26.7103 3.1964L31.3517 6.1552H18.8038L23.4525 3.19237ZM38.2031 7.87395V22.5582L26.9916 31.7364C26.9883 31.7391 26.985 31.7417 26.9817 31.7444C25.8966 32.6582 24.2596 32.6582 23.1746 31.7444C23.1713 31.7417 23.1683 31.7391 23.165 31.7364L11.9531 22.5582C11.9531 19.1791 11.9531 11.0087 11.9531 7.87395H38.2031ZM10.0781 21.0234L3.54346 15.6738L10.0781 11.5676V21.0234Z" fill="#DA0713" stroke="#DA0713" stroke-width="0.658514"/>
<path d="M32.5781 38.4883H21.3281C20.8103 38.4883 20.3906 38.8733 20.3906 39.3477C20.3906 39.8223 20.8103 40.207 21.3281 40.207H32.5781C33.0959 40.207 33.5156 39.8223 33.5156 39.3477C33.5156 38.8733 33.0959 38.4883 32.5781 38.4883Z" fill="#DA0713" stroke="#DA0713" stroke-width="0.658514"/>
<path d="M25.0781 26.7812C25.5959 26.7812 26.0156 26.3965 26.0156 25.9219C26.0156 25.4475 25.5959 25.0625 25.0781 25.0625C21.4596 25.0625 18.5156 22.3642 18.5156 19.0469C18.5156 15.7299 21.4596 13.0312 25.0781 13.0312C28.6967 13.0312 31.6406 15.7299 31.6406 19.0469V20.7656C31.6406 21.2396 31.2202 21.625 30.7031 21.625C30.186 21.625 29.7656 21.2396 29.7656 20.7656V19.0469C29.7656 16.6779 27.6628 14.75 25.0781 14.75C22.4934 14.75 20.3906 16.6779 20.3906 19.0469C20.3906 21.4162 22.4934 23.3438 25.0781 23.3438C26.3383 23.3438 27.4827 22.8849 28.326 22.141C28.8248 22.863 29.7037 23.3438 30.7031 23.3438C32.254 23.3438 33.5156 22.1873 33.5156 20.7656V19.0469C33.5156 14.7822 29.7305 11.3125 25.0781 11.3125C20.4258 11.3125 16.6406 14.7822 16.6406 19.0469C16.6406 23.3119 20.4258 26.7812 25.0781 26.7812ZM25.0781 21.625C23.5272 21.625 22.2656 20.4685 22.2656 19.0469C22.2656 17.6255 23.5272 16.4688 25.0781 16.4688C26.629 16.4688 27.8906 17.6255 27.8906 19.0469C27.8906 20.4685 26.629 21.625 25.0781 21.625Z" fill="#DA0713" stroke="#DA0713" stroke-width="0.658514"/>
</svg>
