<svg width="49" height="44" viewBox="0 0 49 44" fill="none" xmlns="http://www.w3.org/2000/svg">
<path d="M47.1382 0.803647C46.366 0.0563042 45.2685 -0.192744 44.2737 0.153547L2.06855 14.849C0.918335 15.2494 0.138334 16.334 0.0814276 17.6117C0.024615 18.8895 0.704772 20.0466 1.81421 20.5595L12.2519 25.3832C12.3028 25.6327 15.2991 40.3118 15.401 40.8108C15.5318 41.4517 15.8398 42.0226 16.4922 42.1981C17.1521 42.3757 17.6183 41.9947 18.1107 41.6054C18.3847 41.3887 25.8563 35.4792 25.8563 35.4792L34.9115 43.306C35.439 43.7621 36.0836 44 36.7409 44C37.0538 43.9999 37.3698 43.946 37.6771 43.8359C38.6301 43.4946 39.3366 42.673 39.567 41.6383L48.0013 3.76093C48.241 2.68404 47.9105 1.55099 47.1382 0.803647ZM18.7854 28.1473C18.7803 28.1601 18.7752 28.1747 18.7704 28.1921L17.0244 34.6355L15.0759 25.09L28.4744 17.2269L19.1068 27.5728C18.9592 27.7358 18.8507 27.9329 18.7854 28.1473ZM19.3396 36.9135L20.1326 33.9868L20.8911 31.1874L23.609 33.5367L19.3396 36.9135ZM45.2571 3.07905L36.8228 40.9564C36.8186 40.9752 36.813 41.0011 36.7717 41.0159C36.7309 41.0305 36.711 41.0138 36.6969 41.0015L26.7884 32.437C26.7881 32.4368 26.7879 32.4365 26.7876 32.4363L22.1968 28.4682L36.9458 12.1788C37.4275 11.6467 37.4688 10.8227 37.0429 10.24C36.6168 9.65709 35.8516 9.49063 35.2425 9.84831L13.4033 22.665L2.94427 17.8313C2.9124 17.8167 2.89487 17.8084 2.8974 17.7515C2.89993 17.6948 2.91812 17.6883 2.95112 17.6768L45.1563 2.98151C45.1767 2.97448 45.1998 2.96636 45.2337 2.99903C45.2677 3.03191 45.262 3.05687 45.2571 3.07905Z" fill="#DA0713"/>
</svg>
