<svg width="68" height="41" viewBox="0 0 68 41" fill="none" xmlns="http://www.w3.org/2000/svg">
<path d="M62.8895 40.9996H54.5141C53.2259 41.0028 52.0082 40.3808 51.2159 39.3153L43.0501 28.3886C42.6835 27.8974 42.0609 27.7033 41.4981 27.906C40.9358 28.1081 40.557 28.6615 40.5549 29.2851V33.6779C40.5549 37.7232 36.8033 40.9996 32.1795 40.9996C30.3719 41.0168 28.5976 40.4896 27.0671 39.4805C15.3413 31.6097 7.38456 21.6712 0.475257 6.26C-0.133575 4.90012 -0.0374703 3.30806 0.729832 2.03934C1.49713 0.770621 2.82931 0.00166884 4.26167 6.01203e-05H12.6371C14.3128 -0.00422971 15.8295 1.03981 16.493 2.65386L17.4351 4.96018C18.8588 8.42475 20.7702 11.6459 23.1063 14.5147C23.1825 14.6005 23.2909 14.6477 23.4028 14.6429C23.5056 14.6531 23.6083 14.6171 23.6845 14.5437C23.7612 14.4707 23.8046 14.3667 23.8041 14.2584V8.52932C21.8882 7.81131 20.7421 5.75273 21.0861 3.64964C21.4301 1.54654 23.1656 0.00703106 25.2002 6.01203e-05H36.3672C38.6799 6.01203e-05 40.5549 1.96695 40.5549 4.39285V14.6429C40.556 15.2965 40.97 15.8703 41.5697 16.0489C42.1693 16.2274 42.8088 15.9674 43.1375 15.4113L50.9368 2.10476C51.6928 0.791534 53.0516 -0.00798321 54.5141 6.01203e-05H62.8895C64.4369 0.000596452 65.8575 0.896635 66.5844 2.32944C67.3113 3.76224 67.2255 5.49909 66.3615 6.84556L57.5675 19.6394C57.2122 20.1526 57.2122 20.847 57.5675 21.3602L66.292 34.0442C67.2081 35.3826 67.3333 37.1463 66.6161 38.6123C65.8989 40.0784 64.4599 40.9996 62.8895 40.9996ZM41.951 24.8923C43.2392 24.8897 44.4564 25.5112 45.2487 26.5766L53.4145 37.5034C53.6783 37.86 54.0837 38.0696 54.5141 38.0707H62.8895C63.415 38.0729 63.8971 37.7645 64.1363 37.2739C64.3761 36.7827 64.3321 36.1928 64.0234 35.7462L55.2993 23.0622C54.2422 21.527 54.2422 19.4544 55.2993 17.9192L64.076 5.1618C64.214 4.93122 64.2866 4.66472 64.2851 4.39285C64.2851 3.58422 63.6604 2.92841 62.8895 2.92841H54.5141C54.03 2.92894 53.5812 3.19223 53.3276 3.6239L45.5278 16.9304C44.5515 18.6131 42.6263 19.4083 40.8182 18.8753C39.0101 18.3428 37.7618 16.6124 37.7633 14.6429V4.39285C37.7633 3.58422 37.1381 2.92841 36.3672 2.92841H25.2002C24.4288 2.92841 23.8041 3.58422 23.8041 4.39285C23.8041 5.20148 24.4288 5.85729 25.2002 5.85729H26.5957V14.2584C26.5799 15.6478 25.7482 16.8827 24.5045 17.3626C23.2612 17.842 21.8646 17.4661 20.9946 16.4183C18.48 13.3291 16.4209 9.86185 14.8879 6.13184L13.9278 3.82552C13.7096 3.28071 13.2004 2.9268 12.6371 2.92841H4.26167C3.78524 2.93109 3.34306 3.18848 3.08848 3.61103C2.83391 4.03357 2.80272 4.56283 3.00516 5.01541C9.75803 20.0786 17.1734 29.3586 28.5848 37.0277C29.666 37.7222 30.9118 38.0841 32.1795 38.0707C35.2503 38.0707 37.7633 36.0942 37.7633 33.6779V29.2851C37.7633 26.8592 39.6379 24.8923 41.951 24.8923Z" fill="#DA0713"/>
</svg>
